<?xml version="1.0" encoding="utf-8"?>
<!-- Generator: Adobe Illustrator 23.0.0, SVG Export Plug-In . SVG Version: 6.00 Build 0)  -->
<svg version="1.1" id="Layer_1" xmlns="http://www.w3.org/2000/svg" xmlns:xlink="http://www.w3.org/1999/xlink" x="0px" y="0px"
	 viewBox="0 0 1440 1440" style="enable-background:new 0 0 1440 1440;" xml:space="preserve">
<style type="text/css">
	.st0{fill:#ED2224;stroke:#010101;stroke-width:47.6678;stroke-miterlimit:10;}
	.st1{fill-rule:evenodd;clip-rule:evenodd;}
</style>
<g>
	<path class="st0" d="M1361.5,717.8c0,354.4-287.3,641.7-641.7,641.7c-354.4,0-641.7-287.3-641.7-641.7
		c0-354.4,287.3-641.7,641.7-641.7C1074.3,76.1,1361.5,363.4,1361.5,717.8z"/>
	<path class="st1" d="M719.9,607c-13,0-10.2-8-16.4-8c-6.1,0-9.8,4.8-15.2,4.8c-3,0-0.4-13.5,1.3-15.9c1.8-2.4,16.5-18.7,16.5-18.7
		s-30.9,15.1-31.7,19.9c-0.9,4.7-1.7,13.9-1.7,13.9s-53.3-36.1-88.1-74.3c-4.4-4.8-9.1-5.6-14.8-5.6c-48.7,0.4-99.6,11.1-120.9,17.1
		c-5.8,1.6-12.8,1.4-18.3-6.4c-6.1-8.7-28.7-32.9-31.7-54c-3-21-14.4-47.7,11.7-56.4c26.1-8.7,111.7-33.4,188.7-43.7
		c0,0-101.3-4.4-236.5,37.3c-7.4,2.8,4.3,9.5,3.5,14.3c-0.9,4.8-14.7,45.8,55.3,135.4c2.5,3.2,10.9,6.7,17.8,2.6
		c16.4-9.6,53.7-25.3,119.4-22.8c5.2,0.2,80.9,51.2,92.6,68.7c0,0-20.8,1.9-87-18.3c-9.1-2.8-15.7-9.5-20.9-9.5
		c-5.2,0-10.9,7.9-19.6,12.3c-8.7,4.4-100.9,50.8-108.3,55.2c-7.4,4.4-15.1,7.3-27,0c-56.1-34.5-94.8-124.7-117.8-211.7
		c-2.9-10.8-8.5-20,3-30.2c10.9-9.5,47.4-49.6,214.3-70.7c0,0-112.2-12.7-250.8,62.7c-15,8.1,5,14.8,6.5,19.5
		c27,85.4,63.9,210.1,147.8,266.5c11.7,7.9,13.1,17.9,21.3,16.3c8.3-1.6,3.1-20.7,18.7-32.2c15.7-11.5,104.8-62.4,113.1-62.4
		c8.3,0,69.1,9.5,101.7,31.8c0,0-20.9,19.3-77,14.7c-4.8-0.4-11.3-4.4-16.9,1.6c-5.6,5.9-16.1,16.6-31.7,24.2
		c-48.3,23.4-102,63.8-105.2,78.2c-3.5,15.5,28.9,289.4,191.4,461.9c0,0-170.1-249.8-156.6-456.2c1.7-25.7,71.9-75,199.8-97.4
		c0,0-21.8,26.9-59.6,36.1c-5.7,1.4-12.3-1.3-17.6,9.5c-10,20.3-33.7,35.7-37.1,48.3c-5.9,21.3,8.5,81.7,29.7,126.5
		c0,0,35.5,167.8,110,355.7c0,0-75.3-311.6-81.2-353.4c-5.9-41.7-39.8-94.3-25.4-133s102.4-66.5,102.4-66.5s-5.7,18.4-14.8,27.8
		c-3.9,4-4.7,7-3.4,13.9c2.3,12.5,23.3,112.1,61.4,199.9v-14.7H725v14.7c38.1-87.8,59.1-187.4,61.4-199.9c1.3-7,0.4-9.9-3.4-13.9
		c-9.1-9.5-14.8-27.8-14.8-27.8s88,27.8,102.4,66.5c14.4,38.7-19.4,91.3-25.4,133c-5.9,41.8-81.2,353.4-81.2,353.4
		c74.5-187.9,110-355.7,110-355.7c21.1-44.9,35.5-105.2,29.7-126.5c-3.5-12.6-27.2-28-37.1-48.3c-5.2-10.7-11.9-8-17.6-9.5
		c-37.8-9.2-59.6-36.1-59.6-36.1c127.8,22.4,198.1,71.7,199.8,97.4c13.5,206.5-156.6,456.2-156.6,456.2
		C995,1053,1027.4,779,1023.9,763.5c-3.2-14.4-56.9-54.8-105.2-78.2c-15.6-7.6-26.1-18.3-31.8-24.2c-5.6-6-12.2-2-16.9-1.6
		c-56.1,4.7-77-14.7-77-14.7c32.6-22.2,93.4-31.8,101.7-31.8c8.3,0,97.4,50.8,113,62.4c15.6,11.5,10.4,30.6,18.7,32.2
		c8.3,1.6,9.6-8.4,21.3-16.3c83.9-56.4,120.8-181.1,147.8-266.5c1.5-4.6,21.4-11.3,6.5-19.5c-138.7-75.5-250.9-62.7-250.9-62.7
		c166.9,21,203.5,61.1,214.3,70.7c11.6,10.2,5.9,19.4,3,30.2c-23.1,87-61.7,177.2-117.8,211.7c-11.8,7.3-19.6,4.4-26.9,0
		c-7.4-4.4-99.6-50.8-108.3-55.2c-8.7-4.4-14.4-12.3-19.6-12.3c-5.2,0-11.8,6.7-20.9,9.5c-66.1,20.1-87,18.3-87,18.3
		c11.7-17.5,87.4-68.5,92.6-68.7c65.7-2.5,103,13.2,119.4,22.8c6.9,4,15.4,0.6,17.9-2.6c70-89.6,56.2-130.6,55.3-135.4
		c-0.9-4.8,10.9-11.5,3.5-14.3c-135.2-41.7-236.5-37.3-236.5-37.3c77,10.3,162.6,34.9,188.7,43.7c26.1,8.7,14.8,35.4,11.7,56.4
		c-3.1,21.1-25.6,45.3-31.7,54c-5.4,7.8-12.4,8-18.3,6.4c-21.3-6-72.2-16.7-120.9-17.1c-5.7,0-10.4,0.8-14.8,5.6
		c-34.9,38.2-88.1,74.3-88.1,74.3s-0.9-9.1-1.7-13.9c-0.9-4.8-31.8-19.9-31.8-19.9s14.8,16.3,16.5,18.7c1.7,2.4,4.3,15.9,1.3,15.9
		c-5.4,0-9.1-4.8-15.2-4.8C730.1,599.1,732.8,607,719.9,607z"/>
</g>
</svg>
